HIERARCHY
ROOT Hips
{
  OFFSET 74.0196 97.4445 -31.1285
  CHANNELS 6 Xposition Yposition Zposition Zrotation Xrotation Yrotation
  JOINT RightUpLeg
  {
    OFFSET -8.9458 -8.66707 0.101652
    CHANNELS 3 Zrotation Xrotation Yrotation
    JOINT RightLeg
    {
      OFFSET -2.94875e-013 -44.4227 1.3727
      CHANNELS 3 Zrotation Xrotation Yrotation
      JOINT RightFoot
      {
        OFFSET 0.253549 -42.0924 -1.46059
        CHANNELS 3 Zrotation Xrotation Yrotation
        JOINT RightToes
        {
          OFFSET 0.04 -4.41509 8.4991
          CHANNELS 3 Zrotation Xrotation Yrotation
          End Site
          {
            OFFSET -0.08 -0.137448 9.77979
          }
        }
      }
    }
  }
  JOINT Spine
  {
    OFFSET -5.68434e-014 11.8905 -6.39488e-014
    CHANNELS 3 Zrotation Xrotation Yrotation
    JOINT Spine1
    {
      OFFSET 5.68434e-014 25.6574 0.127663
      CHANNELS 3 Zrotation Xrotation Yrotation
      JOINT HEad
      {
        OFFSET 4.26326e-014 8.73416 0.011341
        CHANNELS 3 Zrotation Xrotation Yrotation
        End Site
        {
          OFFSET -0.29 12.7742 2.51395
        }
      }
      JOINT LeftShoulder1
      {
        OFFSET 8.99 -0.362252 -0.22
        CHANNELS 3 Zrotation Xrotation Yrotation
        JOINT LeftArm
        {
          OFFSET 10.2827 -0.00338 0.322123
          CHANNELS 3 Zrotation Xrotation Yrotation
          JOINT LeftForeArm
          {
            OFFSET 32.7669 0.099144 -1.42434
            CHANNELS 3 Zrotation Xrotation Yrotation
            JOINT LeftHand
            {
              OFFSET 27.5643 0.085362 1.02216
              CHANNELS 3 Zrotation Xrotation Yrotation
              End Site
              {
                OFFSET 16.7443 -0.6 1.50291
              }
            }
          }
        }
      }
      JOINT RightShoulder
      {
        OFFSET -8.99 -0.362252 -0.22
        CHANNELS 3 Zrotation Xrotation Yrotation
        JOINT RightArm
        {
          OFFSET -10.2827 -0.00338 0.322123
          CHANNELS 3 Zrotation Xrotation Yrotation
          JOINT RightForeArm
          {
            OFFSET -32.8971 0.099144 -1.42434
            CHANNELS 3 Zrotation Xrotation Yrotation
            JOINT RightHand
            {
              OFFSET -27.4921 0.085362 1.02216
              CHANNELS 3 Zrotation Xrotation Yrotation
              End Site
              {
                OFFSET -16.6312 -0.6 1.50291
              }
            }
          }
        }
      }
    }
  }
  JOINT LeftUpLeg
  {
    OFFSET 8.9458 -8.66707 0.101652
    CHANNELS 3 Zrotation Xrotation Yrotation
    JOINT LeftLeg
    {
      OFFSET 7.10543e-014 -44.4227 1.3727
      CHANNELS 3 Zrotation Xrotation Yrotation
      JOINT LeftFoot
      {
        OFFSET -0.253549 -42.0924 -1.46059
        CHANNELS 3 Zrotation Xrotation Yrotation
        JOINT LeftToes
        {
          OFFSET -0.04 -4.41509 8.4991
          CHANNELS 3 Zrotation Xrotation Yrotation
          End Site
          {
            OFFSET 0.08 -0.047448 9.77979
          }
        }
      }
    }
  }
}
MOTION
Frames:	16
Frame Time:	0.0166667
45.9052 86.4918 81.7671 2.05069 3.25324 160.805 -23.121 -3.02857 -0.507146 9.53091 48.6103 -7.28327 -0.406836 -0.639495 -0.100688 -48.0147 -49.09 -30.9998 -2.41075 8.22695 4.65654 -3.27916 15.7154 10.2032 -6.68848 -10.1233 11.257 -5.03302e-021 -3.88251e-019 1.21329e-020 -47.0747 -34.1263 -3.35742 -15.3966 36.141 -109.271 19.2595 4.48634 -28.1962 12.4797 3.49766 19.8231 75.3266 -34.1898 50.9527 -6.18012 56.9865 130.954 -26.5361 14.9272 -26.5019 26.2868 -46.4469 2.69206 6.14282 57.6343 -16.1033 -29.9146 27.892 9.27364 15.7909 -30.9356 -19.4071 
44.25 87.1606 80.4768 1.94063 1.83987 157.674 -22.9271 -4.74862 -0.28978 4.81222 46.4463 -1.93926 1.42484 1.37854 -0.224938 -47.0137 -48.9114 -29.7905 -2.26715 7.56236 4.82964 -2.90248 14.4116 10.4752 -7.04421 -10.099 13.5193 -5.03302e-021 -3.88251e-019 1.21329e-020 -40.4007 -37.1954 1.7152 -17.8199 37.7235 -108.775 17.0146 5.06242 -28.7938 13.0939 3.58149 19.6033 73.1638 -31.5506 49.526 -5.54599 55.9369 129.751 -26.6156 14.9087 -26.3531 27.4128 -44.8116 1.3746 5.74833 55.7456 -13.4707 -25.6733 25.289 7.3048 14.3207 -26.0375 -15.7009 
42.4955 87.9379 79.0019 1.93705 0.174546 154.573 -22.3386 -6.33783 -0.153491 0.347966 43.4751 3.05948 3.70659 3.18183 -0.45125 -44.8111 -48.223 -27.5478 -1.9265 6.74526 4.88574 -2.1913 12.855 10.4484 -7.34528 -9.75778 16.1063 -5.03302e-021 -3.88251e-019 1.21329e-020 -31.946 -41.9037 7.64464 -20.8692 39.9526 -106.249 14.9886 5.61849 -29.2001 14.1405 3.76504 19.4927 70.2872 -28.8382 47.2717 -4.71798 54.5782 128.632 -26.6006 14.8636 -26.1704 28.2499 -42.6328 -0.0628873 6.26963 52.8757 -11.9833 -22.5939 23.0715 5.95337 12.6393 -21.5451 -12.4282 
40.6938 88.7304 77.3765 2.05694 -1.6733 151.73 -21.4888 -7.62925 -0.110989 -3.27086 39.871 6.96689 6.169 4.68296 -0.754833 -41.4236 -46.8112 -24.4444 -1.38721 5.81722 4.79327 -1.13249 11.1242 10.076 -7.58389 -9.10547 18.9527 -5.03302e-021 -3.88251e-019 1.21329e-020 -21.5556 -47.6213 14.4087 -24.4764 42.111 -100.914 13.4535 6.04846 -29.5041 15.629 4.06914 19.5786 66.751 -26.2494 44.3549 -3.64128 52.9957 127.636 -26.3834 14.768 -25.939 28.8342 -40.0676 -1.30136 7.72299 49.1327 -11.8502 -20.8386 21.6621 5.21738 11.5332 -18.6841 -9.87609 
38.9008 89.4581 75.6467 2.3002 -3.6004 149.436 -20.5747 -8.47828 -0.126084 -5.57064 36.0356 9.1851 8.3824 5.6802 -1.05957 -36.8637 -44.3037 -20.7859 -0.684143 4.83724 4.52123 0.211138 9.32024 9.33337 -7.71113 -8.19262 21.8754 -5.03302e-021 -3.88251e-019 1.21329e-020 -10.1656 -53.1227 21.0116 -27.3108 43.1487 -93.2416 13.1086 6.18171 -29.2695 17.4908 4.50371 19.9243 62.6756 -23.9388 41.0432 -2.48523 51.2047 126.994 -25.8476 14.6292 -25.7841 29.1794 -37.3511 -2.0806 9.77623 44.7694 -12.8364 -20.1025 20.9027 4.89405 11.444 -17.8022 -7.92376 
37.1676 90.0585 73.8756 2.64328 -5.46322 147.959 -19.8178 -8.85796 -0.121012 -6.33726 32.6457 9.47364 9.90827 5.7957 -1.24694 -31.2178 -40.256 -16.9945 0.0645971 3.87281 4.08087 1.6857 7.54952 8.27041 -7.64441 -7.10038 24.5384 -5.03302e-021 -3.88251e-019 1.21329e-020 -0.309186 -57.7269 25.0418 -27.3096 42.8888 -84.815 14.8842 5.87981 -27.4914 19.5397 5.04908 20.5287 58.3436 -22.0802 37.7432 -1.55972 49.2737 127.008 -24.9743 14.4848 -25.8942 29.2942 -34.7856 -2.28556 11.8416 40.2007 -14.3498 -19.8088 20.2578 4.71032 12.3386 -18.4673 -6.12433 
35.5179 90.5146 72.1242 3.0848 -7.12523 147.468 -19.3418 -8.81795 -0.00308727 -5.59607 30.3636 7.94367 10.5197 4.67066 -1.22374 -24.8211 -34.4465 -13.5685 0.791045 2.98694 3.53435 3.0999 5.90324 7.04894 -7.29186 -5.91617 26.4882 -5.03302e-021 -3.88251e-019 1.21329e-020 3.4118 -60.6754 22.2302 -23.3391 41.174 -77.3651 19.0738 5.49127 -22.6946 21.4843 5.64188 21.3087 54.2071 -20.9346 34.9882 -1.14682 47.4286 127.841 -23.9024 14.3846 -26.4111 29.2268 -32.6749 -1.92989 13.365 35.9469 -15.7761 -19.3226 19.1791 4.41226 13.8604 -19.8478 -4.02253 
33.9449 90.8575 70.4301 3.59165 -8.45688 147.94 -19.1882 -8.40199 0.306735 -3.50196 29.5002 4.9281 10.2917 2.27367 -1.00057 -18.3534 -27.3174 -10.9425 1.4465 2.22322 3.01006 4.24316 4.4512 5.9361 -6.59627 -4.71636 27.269 -5.03302e-021 -3.88251e-019 1.21329e-020 -6.5686 -53.2205 5.05848 -14.7226 29.2075 -72.8922 24.1113 6.26218 -13.2814 22.996 6.18332 22.1392 50.7736 -20.8028 33.3644 -1.39721 45.9764 129.362 -22.8625 14.3694 -27.3723 28.9814 -31.1994 -1.10077 14.0616 32.4808 -16.7744 -18.2711 17.3318 3.87598 15.478 -21.1169 -1.63064 
32.4494 91.0965 68.8336 4.07 -9.35011 149.153 -19.3207 -7.73118 0.834702 -0.284058 30.144 0.868115 9.4434 -1.06909 -0.673825 -12.68 -20.1311 -9.24694 1.92481 1.60399 2.67006 4.94194 3.24294 5.24584 -5.58756 -3.56019 26.5706 -5.03302e-021 -3.88251e-019 1.21329e-020 -12.3898 -44.5784 -8.55227 -8.51169 18.3959 -66.1475 27.7784 7.8811 -4.15037 23.7801 6.56921 22.9232 48.5067 -21.8575 33.4227 -2.31864 45.128 131.072 -22.029 14.4472 -28.6785 28.5357 -30.4133 0.0855442 13.9703 30.1771 -17.4093 -16.7792 14.6013 3.1612 16.6038 -21.7565 0.42839 
31.0385 91.237 67.3634 4.37531 -9.74755 150.749 -19.6423 -6.92649 1.51736 3.77306 32.0724 -3.80869 8.16125 -4.70854 -0.363958 -8.51683 -14.3907 -8.22983 2.12944 1.13191 2.65706 5.10368 2.3053 5.25107 -4.41242 -2.47638 24.3447 -5.03302e-021 -3.88251e-019 1.21329e-020 -16.0133 -38.6472 -19.089 -4.37183 12.1413 -61.1447 30.123 9.51334 2.83195 23.6051 6.7196 23.6404 47.8473 -24.0685 35.6242 -3.75172 45.035 132.015 -21.4852 14.5639 -29.9365 27.8504 -30.2451 1.46422 13.3209 29.2147 -17.948 -15.31 11.1935 2.43824 16.9017 -21.7148 1.45101 
29.7252 91.2943 66.0371 4.34705 -9.65987 152.34 -20.0339 -6.09357 2.20656 8.31134 34.8682 -8.7813 6.58099 -7.95722 -0.156461 -6.14919 -10.9656 -7.49856 1.99358 0.801561 3.05183 4.72773 1.64002 6.09546 -3.30594 -1.43471 20.8475 -5.03302e-021 -3.88251e-019 1.21329e-020 -20.7658 -36.9574 -27.7637 -2.31817 12.0361 -60.91 31.8694 10.7669 7.48775 22.3184 6.59337 24.3512 49.3054 -27.2996 40.3252 -5.30025 46.1308 130.756 -21.4293 14.6025 -30.212 26.9035 -30.5715 2.81089 12.3374 29.5666 -18.5683 -14.2991 7.70974 1.85826 16.5776 -21.3551 1.31456 
28.5184 91.3005 64.8597 3.86406 -9.16075 153.612 -20.3985 -5.30926 2.72221 12.9148 38.0447 -13.867 4.89766 -10.3526 -0.0730545 -5.37769 -9.8067 -6.83079 1.50022 0.606913 3.8468 3.88873 1.22442 7.7386 -2.5034 -0.330774 16.5972 -5.03302e-021 -3.88251e-019 1.21329e-020 -28.3195 -38.532 -34.8777 -2.85709 17.2706 -65.0997 33.251 11.2407 8.99855 19.8898 6.18845 25.1589 53.4563 -31.1399 47.7673 -6.21653 49.1181 125.571 -22.265 14.4011 -28.1743 25.7167 -31.289 3.90457 11.109 31.0487 -19.2147 -13.9403 4.96817 1.49412 16.2124 -21.2313 0.463558 
27.4114 91.2978 63.8183 2.89403 -8.36346 154.38 -20.6892 -4.61792 2.92127 17.161 41.1164 -18.9581 3.39944 -11.7502 -0.0758428 -5.66868 -10.23 -6.28311 0.70764 0.535031 4.94736 2.71128 1.01271 9.96771 -2.14299 0.975111 12.2496 -5.03302e-021 -3.88251e-019 1.21329e-020 -37.3627 -40.8977 -39.6507 -6.70073 24.5916 -70.1253 33.7121 10.3767 5.96108 16.4685 5.53153 26.1339 60.3716 -34.3412 57.7702 -4.9642 53.9478 114.484 -24.0853 13.6907 -22.8884 24.3573 -32.3244 4.62447 9.61429 33.3751 -19.6863 -14.2622 3.63373 1.37254 16.3155 -21.8028 -0.584418 
26.3767 91.3249 62.8784 1.51368 -7.39602 154.581 -20.9109 -4.047 2.75044 20.681 43.6435 -23.9561 2.35683 -12.2714 -0.106151 -6.38256 -11.3067 -6.12291 -0.243606 0.551642 6.20317 1.35238 0.933626 12.4759 -2.2253 2.56852 8.42488 -5.03302e-021 -3.88251e-019 1.21329e-020 -44.2854 -41.8763 -40.5364 -14.5113 29.8286 -72.0336 31.7609 8.35573 -1.3025 12.3788 4.6656 27.2358 68.5125 -35.1899 68.9245 1.49953 58.631 94.8023 -26.147 12.1487 -14.4517 22.9308 -33.5953 4.98293 7.83135 36.1919 -19.8164 -15.2708 3.94644 1.513 17.0385 -23.1901 -1.55155 
25.3754 91.4033 61.9928 -0.114334 -6.37861 154.221 -21.1083 -3.62859 2.26268 23.2098 45.3043 -28.7866 1.91181 -12.2408 -0.12465 -6.92538 -12.1179 -6.67129 -1.17789 0.600619 7.45529 -0.0163456 0.897163 14.9605 -2.63842 4.39982 5.55932 -5.03302e-021 -3.88251e-019 1.21329e-020 -47.1461 -41.1908 -37.3043 -24.9976 30.8207 -70.2451 26.0119 6.6652 -10.1645 8.02602 3.6507 28.308 55.5705 -20.4558 72.0365 6.03336 32.5786 68.2804 -19.3124 10.4451 -7.70353 21.5657 -34.9761 5.06615 5.81393 39.1274 -19.5818 -16.9489 5.66078 1.92854 18.1401 -25.0774 -2.39859 
24.3703 91.5295 61.1209 -1.7931 -5.40331 153.338 -21.343 -3.40651 1.58773 24.6263 46.0054 -33.4391 2.09116 -12.1733 -0.118178 -6.74901 -11.8435 -8.02649 -1.96552 0.626349 8.57532 -1.23856 0.82122 17.1854 -3.20228 6.27039 3.85289 -5.03302e-021 -3.88251e-019 1.21329e-020 -46.985 -39.9868 -31.5496 -34.9858 28.1525 -67.1144 16.9179 6.73375 -17.8723 3.81865 2.5799 29.1567 37.275 -5.63273 77.6397 -0.943289 -8.93989 46.1719 1.26004 9.92469 -2.90328 20.3856 -36.3057 4.95271 3.70048 41.873 -19.1041 -19.1527 8.15151 2.59099 19.1296 -26.8383 -3.20981 
